HIERARCHY
ROOT Hips
{
	OFFSET 0.000000 0.000000 0.000000
	CHANNELS 6 Xposition Yposition Zposition Zrotation Yrotation Xrotation 
	JOINT LeftUpLeg_virtual
	{
		OFFSET 0.000000 0.000000 0.000000
		CHANNELS 3 Zrotation Yrotation Xrotation
		JOINT LeftUpLeg
		{
			OFFSET 8.479694 -4.795517 -0.379053
			CHANNELS 3 Zrotation Yrotation Xrotation
			JOINT LeftLeg
			{
				OFFSET 0.485052 -32.551468 0.112863
				CHANNELS 3 Zrotation Yrotation Xrotation
				JOINT LeftFoot
				{
					OFFSET 0.438033 -32.635670 -3.012641
					CHANNELS 3 Zrotation Yrotation Xrotation
					JOINT LeftToeBase
					{
						OFFSET 0.970169 -13.225353 11.864223
						CHANNELS 3 Zrotation Yrotation Xrotation
						End Site
						{
							OFFSET 0.000000 0.000000 0.000000
						}
					}
				}
			}
		}
	}
	JOINT RightUpLeg_virtual
	{
		OFFSET 0.000000 0.000000 0.000000
		CHANNELS 3 Zrotation Yrotation Xrotation
		JOINT RightUpLeg
		{
			OFFSET -8.479694 -4.795517 -0.379053
			CHANNELS 3 Zrotation Yrotation Xrotation
			JOINT RightLeg
			{
				OFFSET -0.484100 -32.551483 0.112903
				CHANNELS 3 Zrotation Yrotation Xrotation
				JOINT RightFoot
				{
					OFFSET -0.438985 -32.635651 -3.012681
					CHANNELS 3 Zrotation Yrotation Xrotation
					JOINT RightToeBase
					{
						OFFSET -0.970169 -13.225354 11.864223
						CHANNELS 3 Zrotation Yrotation Xrotation
						End Site
						{
							OFFSET 0.000000 0.000000 0.000000
						}
					}
				}
			}
		}
	}
	JOINT Spine_virtual
	{
		OFFSET 0.000000 0.000000 0.000000
		CHANNELS 3 Zrotation Yrotation Xrotation
		JOINT Spine
		{
			OFFSET 0.000000 7.722015 1.166203
			CHANNELS 3 Zrotation Yrotation Xrotation
			JOINT Spine1
			{
				OFFSET 0.000000 12.024086 0.248766
				CHANNELS 3 Zrotation Yrotation Xrotation
				JOINT Spine2
				{
					OFFSET -0.000000 11.503036 -0.491240
					CHANNELS 3 Zrotation Yrotation Xrotation
					JOINT Neck_virtual
					{
						OFFSET 0.000000 0.000000 0.000000
						CHANNELS 3 Zrotation Yrotation Xrotation
						JOINT Neck
						{
							OFFSET 0.000000 18.430687 -3.123054
							CHANNELS 3 Zrotation Yrotation Xrotation
							JOINT Head
							{
								OFFSET -0.000000 9.051071 1.034021
								CHANNELS 3 Zrotation Yrotation Xrotation
								End Site
								{
									OFFSET 0.000000 0.000000 0.000000
								}
							}
						}
					}
					JOINT LeftShoulder_virtual
					{
						OFFSET 0.000000 0.000000 0.000000
						CHANNELS 3 Zrotation Yrotation Xrotation
						JOINT LeftShoulder
						{
							OFFSET 6.197824 13.665230 -4.064723
							CHANNELS 3 Zrotation Yrotation Xrotation
							JOINT LeftArm
							{
								OFFSET 7.778132 -0.187073 -1.709282
								CHANNELS 3 Zrotation Yrotation Xrotation
								JOINT LeftForeArm
								{
									OFFSET 21.954697 0.000000 -2.041093
									CHANNELS 3 Zrotation Yrotation Xrotation
									JOINT LeftHand
									{
										OFFSET 22.992908 0.000000 -0.870901
										CHANNELS 3 Zrotation Yrotation Xrotation
										End Site
										{
											OFFSET 0.000000 0.000000 0.000000
										}
									}
								}
							}
						}
					}
					JOINT RightShoulder_virtual
					{
						OFFSET 0.000000 0.000000 0.000000
						CHANNELS 3 Zrotation Yrotation Xrotation
						JOINT RightShoulder
						{
							OFFSET -6.197824 13.665230 -4.064723
							CHANNELS 3 Zrotation Yrotation Xrotation
							JOINT RightArm
							{
								OFFSET -7.778132 -0.187073 -1.709282
								CHANNELS 3 Zrotation Yrotation Xrotation
								JOINT RightForeArm
								{
									OFFSET -21.954697 0.000000 -2.041093
									CHANNELS 3 Zrotation Yrotation Xrotation
									JOINT RightHand
									{
										OFFSET -22.992908 0.000000 -0.870901
										CHANNELS 3 Zrotation Yrotation Xrotation
										End Site
										{
											OFFSET 0.000000 0.000000 0.000000
										}
									}
								}
							}
						}
					}
				}
			}
		}
	}
}
MOTION
Frames: 8
Frame Time: 0.033333
-113.608986 80.236137 -19.645416 -1.000686 -42.468173 -0.244268 -5.193258 3.043294 25.709054 -10.097811 -0.869735 -37.053237 11.373110 0.657628 48.930379 -6.480426 -6.448448 -5.054430 0.000000 0.000000 0.000000 -1.525212 2.875151 23.460342 -7.595362 4.218816 -54.927650 2.045353 9.170092 29.676120 6.596014 6.520289 6.693049 0.000000 0.000000 0.000000 0.968735 6.171544 17.654584 1.774922 -1.178269 -1.158821 0.552445 -2.434809 14.620597 -0.097786 -0.037350 -0.115924 0.454437 -1.367712 16.659561 7.322228 -3.466944 2.702411 0.000000 0.000000 0.000000 1.699092 -0.758872 12.749702 2.298576 -8.994813 -0.726419 -50.316180 -25.315297 3.563139 10.842917 -39.303955 8.213726 0.000000 0.000000 0.000000 -2.562403 1.400317 11.614761 20.514758 0.039476 -4.623314 53.570625 12.880835 -23.798409 -169.526279 62.123822 -159.021967 0.000000 0.000000 0.000000 
-115.381760 80.577194 -17.727375 -1.177304 -38.769305 -0.177549 -5.174896 2.049878 25.845125 -9.542220 -0.588135 -38.311378 10.400951 -0.184908 52.277892 -7.014472 -6.719631 -3.716618 0.000000 0.000000 0.000000 -1.535499 2.504087 23.507232 -7.912215 3.953771 -54.175869 1.957468 9.413583 31.450026 5.892161 6.050522 5.254328 0.000000 0.000000 0.000000 1.284981 5.732030 17.813839 2.300441 -1.138575 -1.094467 0.558674 -2.303346 14.491711 -0.128861 -0.079604 -0.123501 0.371336 -1.305891 16.740022 7.091331 -3.461269 2.537260 0.000000 0.000000 0.000000 1.554699 -0.703454 12.901731 1.799487 -9.124204 -0.753351 -53.151781 -22.963055 5.201054 11.694337 -35.652939 8.512732 0.000000 0.000000 0.000000 -2.563414 1.460359 11.675009 20.439664 0.046440 -4.512847 54.157793 13.126201 -23.328439 -168.821731 61.814879 -158.184080 0.000000 0.000000 0.000000 
-117.142570 80.991325 -15.862967 -0.888156 -35.644551 -0.065085 -5.141584 1.571988 25.689429 -8.909824 -0.257812 -40.831711 8.805763 -1.018497 56.480395 -7.828805 -7.646492 -2.755059 0.000000 0.000000 0.000000 -1.327878 1.827487 23.914241 -7.749375 3.476741 -53.247315 2.198657 9.535800 33.898355 5.633096 5.632472 4.059834 0.000000 0.000000 0.000000 1.061829 5.496990 17.670213 2.393396 -1.087539 -1.092750 0.546723 -2.142098 14.463873 -0.109548 -0.085445 -0.114371 0.361009 -1.025444 16.817468 6.606947 -3.273167 2.221030 0.000000 0.000000 0.000000 1.550226 -0.530213 12.974014 1.310193 -9.113220 -0.803671 -55.904313 -20.473745 6.378210 12.329697 -31.664176 9.214211 0.000000 0.000000 0.000000 -2.565619 1.709325 11.744427 20.290332 0.283744 -4.292418 54.639307 13.189496 -23.358545 -168.103701 62.045213 -157.332943 0.000000 0.000000 0.000000 
-118.887039 81.436172 -14.038771 -0.677100 -32.439837 0.011890 -4.591372 1.341458 25.642526 -7.816253 -0.832999 -43.804261 6.980839 -2.047459 60.378702 -9.417543 -9.864665 -3.431517 0.000000 0.000000 0.000000 -1.060379 1.297881 24.211610 -7.562350 2.574084 -52.563630 2.470381 9.406866 36.607748 5.343425 4.838287 2.808968 0.000000 0.000000 0.000000 0.933411 5.245829 17.647798 2.433184 -1.069197 -1.078451 0.544853 -2.004387 14.447812 -0.080279 -0.091880 -0.040893 0.415732 -0.953307 16.742926 6.061918 -3.181257 1.818500 0.000000 0.000000 0.000000 1.581037 -0.402538 13.002154 0.958438 -9.224462 -0.812473 -58.586713 -17.993971 7.360132 13.185822 -27.926974 9.686381 0.000000 0.000000 0.000000 -2.500239 1.853851 11.703840 20.073093 0.390137 -4.134665 54.909530 12.856244 -23.820835 -167.529213 62.394482 -156.635471 0.000000 0.000000 0.000000 
-120.636490 81.875916 -12.132576 -0.419487 -30.032444 0.121744 -4.293869 1.453349 25.562521 -6.582289 -0.625709 -46.708170 6.232253 -2.213867 62.778058 -9.926514 -10.725773 -5.573203 0.000000 0.000000 0.000000 -0.600841 0.942386 24.545354 -7.375371 1.884582 -51.741828 2.775766 8.739129 39.138668 5.306800 3.960032 1.141053 0.000000 0.000000 0.000000 0.776815 5.116445 17.555120 2.233916 -1.016900 -0.970462 0.488428 -1.842854 14.359168 -0.100375 -0.071091 -0.051216 0.323077 -0.647692 16.635221 5.382482 -2.806808 1.372678 0.000000 0.000000 0.000000 1.690620 -0.089669 12.915680 0.720208 -8.991706 -0.866121 -61.017570 -15.348031 7.975637 13.861746 -25.065063 10.298142 0.000000 0.000000 0.000000 -2.427334 2.089190 11.744861 19.675724 0.433810 -4.006766 55.176228 12.178668 -24.550872 -167.026484 62.606422 -156.063225 0.000000 0.000000 0.000000 
-122.380226 82.299866 -10.112390 -0.160477 -28.493384 0.034441 -4.214091 1.643662 25.580650 -5.348329 -0.228233 -49.165122 5.633793 -2.390751 62.420826 -9.431226 -10.547063 -5.145789 0.000000 0.000000 0.000000 -0.201022 0.460604 24.904553 -7.010532 0.657725 -50.559307 2.893754 7.585114 40.723230 5.226633 2.763360 -0.521856 0.000000 0.000000 0.000000 0.636468 5.060500 17.689760 1.906536 -0.807180 -0.933203 0.448392 -1.599852 14.275677 -0.052500 0.024854 -0.030700 0.387937 -0.470650 16.474884 4.816124 -2.549141 1.098764 0.000000 0.000000 0.000000 1.795442 0.045442 12.760057 0.723736 -8.745661 -0.939487 -63.182296 -12.576472 8.503953 14.501359 -23.198898 10.631181 0.000000 0.000000 0.000000 -2.317779 2.219016 11.733457 19.199339 0.358294 -4.058720 55.383617 11.319268 -25.170512 -166.591510 62.748593 -155.561329 0.000000 0.000000 0.000000 
-123.982506 82.676178 -7.986109 -0.016227 -26.918998 0.058614 -4.222103 1.655919 25.559010 -4.426051 0.321809 -51.191769 5.138798 -2.595687 59.200651 -9.102241 -10.485462 -4.621570 0.000000 0.000000 0.000000 0.171990 0.453337 24.961898 -6.480676 -1.293419 -48.649337 3.030713 6.346602 41.632134 5.633846 1.913769 -1.747295 0.000000 0.000000 0.000000 0.810206 5.189964 17.836590 1.704231 -0.699110 -1.011882 0.486586 -1.462776 14.142572 0.018306 -0.126990 -0.012466 0.401764 -0.445555 16.312332 4.398293 -2.271762 0.938820 0.000000 0.000000 0.000000 1.847214 0.051831 12.736631 0.719115 -8.595801 -1.033065 -64.713604 -9.933492 9.075468 14.950111 -22.242103 11.177647 0.000000 0.000000 0.000000 -2.322732 2.240560 11.586187 18.748664 0.165481 -3.875967 55.512328 10.588032 -25.748311 -166.308058 62.796684 -155.110673 0.000000 0.000000 0.000000 
-125.398949 82.958923 -5.770891 0.158894 -26.111724 0.034752 -4.331234 1.763821 25.446474 -3.970771 1.031352 -52.830741 4.891283 -2.373257 53.217535 -9.094389 -10.551642 -3.933861 0.000000 0.000000 0.000000 0.788494 0.641407 25.077320 -5.980348 -3.767684 -46.679466 3.234987 5.927324 42.225746 6.220888 1.237971 -2.936759 0.000000 0.000000 0.000000 0.835906 5.232752 17.998585 1.432571 -0.617020 -1.191935 0.425340 -1.523897 14.025327 0.001675 0.016818 0.019445 0.456346 -0.289087 16.159355 4.094087 -2.041331 0.987411 0.000000 0.000000 0.000000 1.955599 0.173664 12.615463 0.755443 -8.235952 -0.963415 -65.861144 -7.489067 9.382835 15.177257 -22.065712 11.618900 0.000000 0.000000 0.000000 -2.258674 2.322016 11.463165 18.330057 0.271597 -3.728883 55.607609 10.089025 -25.975028 -165.857333 62.854317 -154.917720 0.000000 0.000000 0.000000 
